<?xml version="1.0" standalone="no"?>
<!DOCTYPE svg PUBLIC "-//W3C//DTD SVG 20010904//EN"
 "http://www.w3.org/TR/2001/REC-SVG-20010904/DTD/svg10.dtd">
<svg version="1.0" xmlns="http://www.w3.org/2000/svg"
 width="612.000000pt" height="612.000000pt" viewBox="0 0 612.000000 612.000000"
 preserveAspectRatio="xMidYMid meet">
<metadata>
Created by potrace 1.16, written by Peter Selinger 2001-2019
</metadata>
<g transform="translate(0.000000,612.000000) scale(0.100000,-0.100000)"
fill="#000000" stroke="none">
<path d="M2835 5910 c-88 -18 -173 -29 -228 -29 -108 -1 -298 -47 -402 -97
-38 -19 -75 -34 -81 -34 -44 0 -311 -158 -380 -225 -18 -16 -55 -49 -83 -73
-28 -24 -49 -47 -46 -52 3 -4 -5 -14 -18 -23 -68 -44 -95 -205 -47 -282 19
-31 25 -35 30 -21 5 14 9 10 17 -17 11 -36 11 -36 -16 -26 -26 9 -26 9 5 -19
50 -44 49 -55 -7 -114 -62 -65 -94 -125 -119 -226 -24 -93 -25 -180 -5 -229
21 -50 52 -233 64 -378 5 -67 19 -148 30 -184 12 -35 21 -81 21 -102 0 -22 5
-39 10 -39 6 0 11 6 11 13 2 10 9 -50 21 -160 1 -7 5 -13 10 -13 11 0 10 -11
-2 -30 -8 -12 -24 0 -87 65 -84 86 -102 86 -64 -1 12 -26 21 -55 21 -65 0 -10
5 -21 10 -24 6 -3 10 -21 10 -38 1 -32 1 -32 26 16 21 40 28 46 40 37 8 -7 14
-17 14 -23 0 -6 12 -24 28 -40 26 -28 27 -29 8 -43 -11 -8 -28 -14 -37 -14
-10 0 -21 -4 -24 -10 -3 -5 -15 -10 -26 -10 -16 0 -19 -7 -19 -44 0 -35 5 -47
29 -67 20 -17 28 -33 29 -58 1 -24 8 -41 24 -53 19 -15 48 -24 48 -15 0 1 -7
26 -15 56 -8 30 -12 58 -9 63 10 16 42 8 47 -12 3 -11 1 -18 -3 -15 -5 3 -11
1 -15 -5 -3 -5 -1 -10 4 -10 6 0 11 -10 11 -22 0 -19 2 -20 11 -8 8 11 9 8 4
-15 -3 -16 -9 -42 -12 -56 -3 -15 1 -37 10 -50 24 -40 29 -78 12 -95 -19 -20
-19 -38 0 -30 12 4 15 -3 15 -29 0 -18 4 -36 9 -39 4 -3 6 -17 3 -32 -6 -31
-44 -49 -74 -33 -11 6 -22 8 -25 6 -10 -11 58 -37 97 -37 l40 0 0 -45 c0 -25
4 -45 10 -45 5 0 10 -10 10 -22 0 -13 1 -33 1 -46 0 -13 15 -62 33 -110 18
-48 46 -129 62 -181 26 -86 35 -100 92 -160 35 -36 68 -75 73 -86 5 -11 21
-40 35 -64 25 -42 27 -55 34 -230 4 -102 5 -192 2 -199 -2 -7 -22 -22 -43 -33
-21 -10 -46 -30 -54 -43 -24 -37 -61 -47 -202 -55 -113 -7 -135 -11 -174 -34
-56 -33 -83 -58 -113 -105 -35 -54 -72 -86 -151 -127 -38 -21 -87 -46 -108
-57 -37 -20 -39 -20 -107 -2 -57 14 -75 16 -108 6 -22 -7 -54 -12 -71 -12 -53
0 -69 -15 -91 -88 -11 -37 -26 -78 -32 -91 -12 -22 -7 -29 87 -120 866 -835
2158 -1080 3274 -621 538 221 1014 600 1341 1068 53 74 54 73 -72 125 -94 40
-129 45 -168 22 -68 -40 -135 -66 -156 -61 -12 3 -35 17 -51 30 -48 40 -75 49
-153 52 -114 5 -155 19 -197 71 -39 48 -97 83 -136 83 -16 0 -46 21 -90 65
-37 35 -76 69 -88 75 -11 7 -73 14 -137 17 -127 7 -210 28 -250 66 -12 12 -51
36 -85 52 -57 27 -65 36 -100 100 -30 55 -39 84 -43 135 -3 36 -9 83 -14 105
-15 65 -12 97 20 191 17 49 33 116 36 149 5 60 15 107 40 200 l14 50 70 0 c61
0 72 3 92 24 l23 24 -27 -16 c-36 -22 -84 -22 -97 1 -6 9 -11 11 -11 5 0 -7
-4 -13 -10 -13 -11 0 -13 33 -4 80 6 26 11 31 30 27 21 -4 22 -3 7 19 -8 13
-13 31 -10 41 4 14 5 13 6 -5 1 -14 5 -20 12 -17 6 4 8 13 5 20 -3 8 5 16 20
19 13 4 24 11 24 16 0 15 -21 23 -33 11 -15 -15 -37 -14 -37 2 0 6 7 25 16 42
10 19 11 31 5 33 -20 7 -12 35 8 29 10 -2 29 4 42 14 20 15 21 19 7 19 -17 0
-23 12 -19 34 1 5 -6 5 -15 2 -22 -8 -34 10 -33 49 0 17 3 23 6 15 9 -23 24
-30 65 -30 27 0 40 6 48 19 11 22 3 81 -12 81 -6 0 -6 6 1 14 9 10 6 17 -11
28 -13 8 -33 18 -45 22 -31 10 -40 38 -10 34 16 -2 22 2 21 15 -1 10 5 17 17
17 10 0 19 -5 19 -11 0 -8 5 -8 15 1 12 10 16 8 24 -11 8 -20 10 -16 10 26 1
28 5 64 9 80 5 17 5 41 1 55 -4 14 -7 20 -8 14 -1 -5 -15 -21 -32 -33 l-31
-23 -21 21 c-20 19 -20 21 -3 21 10 0 16 6 14 12 -10 29 37 49 60 26 8 -8 12
-8 12 -1 0 20 -30 35 -60 31 -34 -5 -36 0 -15 28 18 24 19 44 2 44 -9 0 -14
16 -16 44 -2 42 0 45 26 48 34 4 39 22 53 213 6 77 15 165 20 195 5 30 14 107
20 170 5 63 14 139 20 169 5 30 7 65 4 78 -4 14 -2 23 5 23 17 0 13 47 -9 90
-21 42 -26 85 -10 95 15 9 52 -15 46 -31 -3 -8 -1 -14 5 -14 12 0 3 52 -16 90
-15 30 -10 110 7 121 10 7 9 16 -6 43 -10 19 -15 39 -12 45 11 18 -15 93 -51
144 -18 26 -33 50 -33 55 0 4 -21 26 -47 50 -26 23 -41 42 -33 42 8 0 -8 22
-35 50 -27 28 -54 50 -60 50 -5 0 -41 20 -78 45 -38 25 -74 45 -80 46 -16 1
-91 45 -164 95 -33 23 -74 45 -92 49 -18 4 -69 24 -114 45 -90 41 -297 96
-392 104 -43 3 -101 -4 -200 -24z m-513 -1068 c89 3 104 5 95 17 -10 11 -8 13
8 8 11 -3 41 -9 67 -13 29 -4 45 -10 41 -17 -4 -6 4 -8 23 -3 95 23 127 27
137 17 6 -6 18 -6 33 -1 18 7 24 6 24 -4 0 -18 22 -26 52 -19 14 3 19 2 11 -4
-8 -6 -2 -13 20 -23 18 -7 38 -20 46 -28 8 -7 22 -11 33 -9 10 3 16 2 13 -3
-4 -7 23 -20 50 -24 6 -1 24 -10 42 -19 46 -25 122 -49 132 -42 13 7 118 18
156 16 17 -1 50 -3 75 -4 25 -1 51 -6 58 -10 6 -5 12 -4 12 2 0 5 -6 11 -12
14 -7 2 -10 7 -6 11 3 4 14 3 25 -3 30 -16 57 -24 72 -22 7 1 27 -12 42 -29
16 -17 34 -28 40 -25 5 4 18 -3 29 -14 10 -12 20 -17 22 -11 2 6 13 2 26 -10
12 -11 22 -16 22 -10 0 5 5 10 11 10 5 0 7 -5 3 -12 -5 -7 -2 -9 8 -5 22 8 30
-3 15 -21 -10 -13 -9 -15 7 -9 14 6 17 4 12 -8 -3 -10 1 -18 12 -22 14 -6 14
-8 -6 -13 -23 -5 -23 -5 -4 -26 21 -22 22 -65 2 -89 -9 -11 -9 -15 -1 -15 12
0 15 -32 4 -44 -11 -10 -12 -100 -1 -113 6 -7 5 -14 -2 -18 -6 -3 -8 -11 -5
-16 4 -5 1 -9 -5 -9 -6 0 -8 -4 -5 -10 3 -5 -2 -10 -12 -10 -15 0 -14 -3 6
-16 17 -12 21 -22 16 -41 -3 -14 -1 -31 6 -39 9 -11 9 -17 -1 -29 -15 -18 -5
-35 23 -35 12 -1 38 -14 57 -30 34 -30 32 -42 -4 -15 -10 8 -49 24 -85 36 -36
12 -70 27 -76 33 -22 27 -65 47 -85 41 -11 -4 -17 -11 -14 -17 5 -8 1 -9 -12
-4 -10 4 -32 10 -49 13 -29 5 -29 5 -10 -10 20 -16 20 -16 -5 -17 -14 0 -35 6
-46 14 -19 13 -109 37 -144 38 -34 0 -96 -16 -112 -29 -14 -13 -18 -12 -28 4
-10 17 -11 17 -5 -2 4 -16 0 -21 -15 -22 -19 -2 -23 5 -21 37 0 10 -1 11 -5 3
-3 -7 -14 -13 -24 -13 -18 0 -53 -44 -53 -68 0 -7 -6 -11 -12 -8 -7 2 -18 -1
-24 -7 -8 -8 -11 -7 -11 3 0 7 -3 11 -6 8 -3 -4 -1 -15 5 -26 9 -18 6 -21 -37
-32 -58 -16 -74 -28 -30 -23 32 3 32 3 8 -8 -14 -6 -40 -13 -58 -15 -18 -2
-36 -5 -40 -5 -4 -1 -32 0 -62 1 l-55 3 55 7 55 7 -45 2 c-25 0 -55 4 -67 7
-21 6 -21 7 -6 23 16 15 14 16 -23 22 -37 5 -38 5 -9 10 l30 4 -34 18 c-31 15
-36 16 -43 2 -5 -8 -14 -15 -19 -15 -6 0 -7 6 -2 13 4 6 9 23 11 37 l3 25 -25
-24 c-14 -14 -26 -20 -26 -14 0 6 6 14 13 17 6 4 3 5 -9 2 -12 -2 -29 1 -38 6
-11 6 -16 5 -17 -4 0 -7 -7 1 -14 17 -8 17 -14 25 -15 20 0 -7 -32 -11 -82
-11 -102 -1 -185 -8 -194 -16 -10 -11 -34 3 -28 16 3 6 0 4 -8 -4 -7 -9 -21
-14 -32 -12 -11 2 -16 0 -12 -6 3 -6 2 -14 -4 -17 -6 -4 -10 -3 -9 2 3 20 -2
23 -22 12 -16 -8 -23 -8 -29 1 -5 9 -9 9 -14 1 -13 -20 -27 -12 -16 9 8 16 8
18 -4 14 -8 -3 -16 -15 -19 -26 -4 -14 -11 -19 -22 -14 -9 3 -18 0 -21 -8 -3
-8 -20 -17 -38 -20 -18 -4 -41 -15 -51 -26 -10 -11 -22 -17 -28 -13 -5 3 -7 1
-4 -4 4 -6 0 -16 -8 -23 -8 -7 -15 -18 -15 -25 0 -7 -24 -30 -52 -52 -79 -57
-75 -56 -73 -16 2 21 8 39 14 41 6 2 11 10 11 18 0 7 -6 11 -13 8 -9 -3 -12 9
-12 46 0 40 3 50 17 50 23 0 32 18 19 34 -8 10 -7 17 4 26 17 14 21 35 5 25
-18 -11 -11 4 12 24 17 17 19 25 11 43 -7 16 -6 26 6 40 16 19 37 25 26 8 -3
-6 1 -7 10 -4 13 5 13 9 -5 24 -20 17 -20 17 3 28 19 9 19 11 3 11 -12 1 -16
6 -13 16 4 8 2 17 -4 21 -6 4 -6 11 2 20 14 17 14 86 1 111 -6 10 -12 32 -13
48 -2 17 -8 33 -13 36 -5 4 -9 44 -10 88 -1 81 -1 82 22 76 14 -3 21 -2 18 4
-3 5 0 12 6 15 10 5 10 7 1 12 -9 4 -10 11 -3 25 8 14 7 19 -2 20 -7 1 -2 5
12 9 l25 8 -22 7 c-35 11 -27 23 15 21 26 0 36 3 34 12 -2 10 4 11 19 7 18 -6
20 -4 15 13 -4 11 -2 23 3 27 7 4 8 -1 4 -11 -5 -13 -3 -15 7 -9 10 6 12 4 7
-8 -5 -12 -1 -17 13 -17 11 0 20 5 20 11 0 5 -4 7 -10 4 -5 -3 -8 0 -5 7 5 13
78 18 90 6 13 -13 54 14 47 31 -5 13 -3 13 12 -2 17 -17 19 -17 50 1 25 15 33
16 41 5 7 -10 38 -12 117 -11z m1213 -952 c3 -5 15 -10 25 -10 10 0 25 -9 33
-20 8 -12 20 -20 27 -18 6 2 18 -6 26 -18 13 -20 13 -21 -13 -19 -16 2 -37 6
-48 10 -11 4 -3 -8 20 -29 46 -41 44 -43 -19 -16 -45 19 -173 46 -246 52 l-34
3 27 27 c29 29 47 34 179 46 9 1 20 -2 23 -8z m-1343 -10 c2 -5 38 -13 81 -16
42 -4 77 -10 77 -15 0 -4 -21 -11 -47 -14 -27 -3 -75 -12 -108 -20 -122 -30
-113 -29 -91 -11 19 16 19 16 -2 16 -13 0 -25 -7 -28 -15 -5 -12 -10 -13 -19
-5 -8 6 -20 10 -27 8 -13 -3 -18 3 -18 22 0 5 15 17 33 25 l32 14 -30 -6 c-16
-3 -40 -12 -52 -19 -12 -8 -31 -14 -42 -14 -26 0 -111 -37 -111 -49 0 -5 8
-12 18 -16 16 -7 15 -8 -3 -15 -11 -5 -14 -9 -7 -9 7 -1 25 7 39 16 24 16 26
16 21 2 -4 -9 -2 -21 4 -27 7 -7 3 -12 -11 -17 -17 -5 -20 -12 -15 -28 4 -12
13 -26 22 -31 12 -7 12 -10 1 -17 -11 -7 -10 -9 3 -9 9 0 21 -6 25 -13 13 -21
65 -39 77 -27 5 5 15 10 21 10 5 0 4 -4 -3 -9 -11 -6 -7 -13 17 -30 65 -46
171 -62 241 -36 34 12 33 13 -30 9 -65 -3 -65 -3 -20 7 25 6 72 20 104 30 64
20 101 24 92 10 -3 -5 16 -11 41 -14 26 -3 49 -10 51 -16 5 -16 27 -14 42 4 7
8 20 15 30 15 12 0 20 13 27 43 17 71 15 -1 -2 -84 -30 -142 -118 -275 -222
-336 -24 -14 -40 -30 -36 -35 3 -7 1 -8 -5 -4 -6 4 -60 -3 -120 -15 -107 -22
-109 -22 -188 -4 -43 10 -96 27 -116 38 -58 32 -152 160 -178 242 -7 22 -19
48 -27 57 -17 19 -23 113 -8 113 6 0 13 25 16 56 10 94 77 167 188 204 113 37
255 56 263 35z m677 -130 c24 0 63 -60 87 -133 32 -99 178 -395 206 -419 47
-41 52 -6 8 58 -16 24 -27 44 -25 44 3 0 28 -18 57 -40 79 -60 157 -82 291
-84 129 -1 213 21 303 80 62 41 73 53 118 128 34 57 51 58 22 2 -9 -18 -12
-49 -10 -93 4 -58 2 -64 -11 -53 -8 7 -12 17 -8 23 3 6 1 7 -5 3 -7 -4 -11
-18 -10 -31 2 -19 8 -25 25 -25 22 0 23 -3 22 -82 -1 -74 -15 -170 -18 -125 0
9 -4 17 -7 17 -4 0 -13 -8 -20 -17 -8 -11 -13 -13 -14 -6 0 7 10 19 23 28 26
16 36 77 16 101 -6 8 -8 26 -4 44 7 30 -7 42 -21 18 -4 -7 -3 -8 4 -4 7 4 12
2 12 -3 0 -6 -12 -11 -26 -11 -21 0 -24 -3 -15 -14 9 -10 9 -20 0 -40 -7 -14
-16 -26 -21 -26 -4 0 -8 -7 -8 -16 0 -8 -4 -13 -9 -9 -5 3 -12 -4 -16 -15 -3
-11 -13 -20 -21 -20 -8 0 -14 -7 -14 -15 0 -8 7 -15 16 -15 10 0 14 -5 10 -16
-3 -8 -2 -12 4 -9 13 8 13 7 -6 -48 -12 -35 -19 -44 -32 -40 -14 5 -15 3 -5
-7 10 -10 8 -19 -7 -41 -11 -15 -18 -34 -14 -42 3 -8 -2 -21 -10 -30 -9 -9
-16 -23 -16 -32 0 -13 -4 -14 -20 -5 -11 6 -21 7 -21 3 -7 -39 -4 -59 9 -72
13 -13 12 -16 -9 -23 -31 -10 -54 -60 -40 -85 6 -10 11 -12 11 -5 0 17 20 15
20 -3 0 -8 -5 -15 -11 -15 -6 0 -8 -7 -5 -15 3 -8 9 -22 12 -31 5 -10 2 -15
-7 -13 -22 4 -60 -11 -54 -22 4 -5 0 -9 -7 -9 -7 0 -14 12 -14 28 -1 15 1 21
3 15 3 -7 9 -13 14 -13 6 0 7 5 4 10 -3 6 1 13 9 16 22 8 21 54 0 54 -12 0
-15 -7 -12 -25 5 -25 -1 -29 -39 -28 -15 1 -17 -13 -3 -22 16 -10 12 -22 -19
-54 -16 -16 -27 -31 -25 -34 4 -4 -29 -72 -46 -92 -9 -10 -9 -15 -2 -15 6 0 9
-7 6 -15 -3 -8 -9 -14 -12 -13 -17 2 -23 -3 -16 -13 8 -14 9 -107 1 -115 -3
-3 -3 -12 0 -20 6 -17 -13 -19 -21 -1 -2 6 -4 3 -4 -8 3 -49 -1 -57 -24 -50
-21 6 -22 5 -5 -8 20 -17 23 -28 4 -21 -10 3 -13 -6 -11 -36 1 -27 -4 -48 -17
-64 -10 -13 -19 -28 -19 -33 0 -4 -10 -13 -22 -18 -13 -6 -22 -16 -21 -22 2
-7 -12 -10 -38 -9 -27 2 -42 -1 -48 -12 -5 -9 -16 -13 -30 -9 -11 3 -21 1 -21
-3 0 -5 -7 -16 -16 -25 -14 -13 -19 -14 -25 -3 -7 11 -11 10 -18 -1 -8 -12
-12 -12 -25 -2 -14 11 -16 11 -16 -5 -1 -18 -1 -18 -11 -1 -6 9 -14 15 -20 12
-5 -4 -9 0 -9 8 0 25 -37 28 -44 4 -7 -29 3 -36 20 -13 8 11 14 16 14 10 -1
-11 -25 -44 -32 -44 -3 0 -14 17 -24 38 -16 33 -19 34 -22 15 -4 -25 -22 -32
-22 -8 0 8 -6 12 -14 9 -7 -3 -35 6 -61 20 -58 31 -66 33 -31 5 31 -24 34 -43
6 -34 -24 8 -26 -8 -4 -30 13 -12 14 -19 5 -28 -9 -9 -14 -9 -19 0 -7 11 -62
21 -129 22 -25 1 -36 8 -47 29 -11 19 -15 22 -16 10 0 -22 -13 -23 -31 -2 -12
14 -14 14 -20 -3 -6 -15 -8 -15 -8 -2 -1 23 -28 31 -53 18 -15 -8 -19 -8 -14
0 4 6 2 11 -4 11 -6 0 -15 11 -20 25 -5 14 -13 24 -17 23 -5 -1 -25 14 -46 35
-20 20 -42 37 -48 37 -6 0 -6 8 2 22 10 18 9 20 -6 14 -14 -5 -16 -2 -12 15 5
19 4 19 -11 6 -15 -13 -19 -13 -31 0 -10 11 -10 18 -2 26 8 8 11 7 11 -4 0
-12 1 -12 9 0 7 10 4 19 -7 28 -15 11 -14 12 8 13 14 1 19 4 12 7 -6 2 -9 9
-6 14 3 6 -2 20 -13 31 -10 12 -12 18 -4 13 11 -6 13 -4 8 8 -3 10 -2 17 3 17
4 0 4 16 -2 36 -7 28 -7 39 3 45 10 6 10 11 -2 26 -8 10 -20 22 -26 26 -7 4
-13 14 -13 22 0 8 -7 18 -15 22 -8 5 -21 26 -28 48 l-14 40 -17 -30 -17 -30 5
36 c2 20 0 42 -5 50 -7 11 -9 10 -9 -4 0 -10 -7 -32 -16 -48 -16 -31 -11 -56
6 -29 7 11 10 6 10 -19 l0 -33 -25 23 c-13 13 -25 33 -25 44 -1 36 -12 65 -25
65 -25 0 -46 30 -35 50 8 15 5 27 -10 52 l-21 33 7 -29 c7 -28 7 -29 -13 -10
-12 12 -15 22 -9 26 6 4 7 10 3 14 -4 4 -13 2 -19 -4 -20 -20 -36 -14 -34 12
1 18 4 22 14 14 16 -14 15 2 -3 26 -8 10 -12 23 -8 29 3 6 -3 16 -13 24 -19
14 -19 15 1 29 l20 16 -20 -4 c-18 -3 -20 3 -23 49 -3 44 -6 51 -20 46 -14 -5
-15 -4 -6 8 18 22 23 78 7 72 -7 -3 -13 -13 -13 -23 0 -11 -4 -21 -9 -24 -5
-4 -8 5 -7 18 3 28 -21 44 -30 21 -4 -8 -11 -15 -16 -15 -7 0 -6 5 1 14 6 7 9
22 5 32 -5 15 -4 16 5 4 5 -8 13 -11 18 -7 10 11 -18 28 -36 22 -9 -4 -11 0
-7 11 4 9 2 22 -4 29 -6 8 -5 18 5 31 14 18 14 18 15 -8 0 -32 15 -44 35 -28
9 8 15 8 20 0 3 -6 11 -7 17 -4 7 4 7 9 -1 13 -12 8 -3 51 11 51 5 0 6 5 3 11
-5 7 -14 4 -26 -7 -10 -9 -19 -12 -19 -6 0 6 5 14 10 17 18 11 10 20 -19 22
-18 1 -31 -4 -35 -12 -3 -8 -17 -15 -31 -15 -14 0 -25 -5 -25 -11 0 -6 9 -8
20 -4 11 4 20 2 20 -4 0 -6 -5 -11 -11 -11 -5 0 -8 -3 -6 -7 3 -5 -1 -14 -9
-21 -15 -13 -18 -9 -14 22 1 10 -3 15 -8 12 -6 -4 -8 9 -5 34 3 22 1 45 -4 52
-6 7 -9 31 -8 53 1 22 -1 44 -4 50 -2 5 -6 25 -8 44 -2 20 -7 38 -11 41 -5 3
-9 21 -10 40 -1 19 -5 43 -8 53 -11 35 4 15 37 -49 19 -37 41 -69 51 -71 9 -3
18 -13 21 -23 4 -15 53 -55 101 -81 57 -32 82 -41 111 -42 30 -1 34 -4 29 -23
-6 -23 9 -39 26 -29 8 5 7 11 -1 21 -10 12 -3 14 42 15 30 1 70 0 89 -1 38 -1
137 28 192 56 45 23 108 76 108 92 0 6 7 12 15 12 11 0 12 -5 5 -26 -12 -30
-13 -43 -2 -29 4 6 15 15 26 20 22 13 55 72 80 145 10 30 33 89 51 130 18 42
38 102 45 135 7 33 17 68 22 78 11 22 67 48 86 42 8 -3 17 -5 21 -5z m221
-131 c0 -11 5 -17 10 -14 6 3 10 0 10 -7 1 -9 4 -8 13 3 31 41 85 47 159 17
26 -10 30 -28 7 -28 -6 0 -8 4 -5 8 3 5 -8 9 -24 10 -17 0 -38 3 -48 6 -13 4
-19 1 -19 -9 0 -8 7 -15 16 -15 11 0 10 -3 -5 -15 -18 -14 -17 -14 11 -5 31
12 79 5 71 -9 -9 -14 31 -22 140 -28 109 -6 183 6 242 39 18 10 39 18 47 18 8
0 15 5 15 10 0 6 11 10 25 10 14 0 25 5 25 10 0 6 12 9 28 9 16 -1 20 -3 10
-6 -26 -7 -22 -20 12 -40 17 -9 30 -21 30 -25 0 -4 5 -8 10 -8 6 0 10 7 10 15
0 8 4 15 10 15 5 0 9 -3 9 -7 -3 -20 2 -27 11 -13 17 28 24 -1 11 -53 -25 -99
-79 -169 -216 -275 -25 -20 -107 -38 -183 -41 -80 -3 -186 15 -176 30 2 4 -10
12 -28 18 -51 17 -145 93 -190 152 -43 57 -81 135 -93 190 -7 31 -7 32 10 15
10 -9 20 -14 23 -11 4 3 0 10 -7 15 -17 10 -7 40 14 40 8 0 15 -9 15 -21z"/>
<path d="M2981 2934 c-38 -24 -51 -26 -105 -21 -33 3 -78 13 -98 21 -42 18
-98 21 -98 6 0 -5 -7 -10 -15 -10 -9 0 -28 -12 -42 -26 -20 -20 -28 -23 -34
-13 -16 26 -20 1 -5 -32 18 -41 36 -64 54 -70 10 -3 8 -9 -6 -24 -17 -18 -17
-21 -3 -33 15 -12 15 -13 0 -9 -15 5 -45 -36 -41 -55 1 -5 -5 -8 -14 -8 -8 0
-12 5 -9 10 3 6 3 10 -2 10 -10 0 -53 -51 -53 -64 0 -6 -7 -1 -15 11 -14 20
-55 22 -55 2 0 -5 -6 -6 -13 -3 -8 3 -21 -5 -30 -18 -47 -64 -48 -65 -40 -44
6 19 6 19 -20 0 -35 -26 -66 -154 -37 -154 6 0 10 -9 10 -20 0 -11 5 -20 10
-20 6 0 19 -9 30 -20 11 -11 26 -20 33 -20 7 1 5 6 -5 14 -25 19 -22 24 10 22
16 -1 34 4 41 11 9 10 9 13 0 13 -7 0 -10 3 -6 6 3 3 12 2 19 -2 7 -4 40 -8
73 -9 57 -1 125 -21 125 -37 0 -5 5 -8 10 -8 6 0 10 7 10 16 0 8 -4 13 -8 10
-4 -2 -14 -1 -22 4 -11 7 -11 11 1 23 22 22 59 31 59 15 0 -9 3 -9 8 -2 9 13
363 14 355 1 -3 -4 2 -7 10 -5 9 2 16 0 16 -4 2 -22 0 -29 -7 -24 -4 2 -22 -2
-40 -11 -40 -19 -44 -53 -7 -53 14 0 25 5 25 10 0 6 3 9 8 9 22 -4 32 5 51 46
19 41 23 44 42 34 15 -8 28 -8 49 1 32 13 121 4 132 -14 6 -8 8 -7 8 1 0 8 16
11 49 9 52 -3 54 -1 67 63 4 20 -33 111 -56 141 -17 21 -21 23 -30 10 -8 -12
-12 -9 -21 16 -15 39 -75 62 -84 33 -5 -16 -9 -17 -26 -6 -10 6 -19 18 -19 25
0 13 -100 82 -135 94 -17 5 -16 6 6 7 15 1 36 9 47 19 22 19 59 109 48 119 -3
3 -6 1 -6 -6 0 -7 -5 -9 -11 -6 -5 4 -22 8 -36 10 -15 1 -32 10 -38 19 -18 24
-64 19 -114 -10z m-180 -184 c5 0 9 7 9 16 0 8 4 13 8 10 5 -3 7 -37 4 -77 -3
-50 -1 -69 7 -65 6 4 11 2 11 -3 0 -6 4 -11 9 -11 5 0 8 22 6 49 -3 52 2 64
24 69 8 2 11 -3 8 -12 -3 -8 1 -17 10 -20 9 -4 13 -9 10 -13 -4 -3 -2 -12 3
-19 6 -6 9 -17 8 -24 -2 -7 3 -15 10 -17 6 -3 12 3 12 12 0 14 3 15 15 5 25
-20 17 6 -11 39 -14 17 -21 31 -15 31 7 0 14 -7 17 -15 4 -8 10 -12 15 -9 5 3
9 2 8 -3 -4 -15 24 -63 37 -63 18 0 38 -62 22 -71 -7 -4 -17 -4 -23 1 -7 6
-31 2 -63 -10 -52 -20 -52 -20 -104 0 -29 11 -63 20 -75 20 -15 0 -23 6 -23
17 0 13 3 14 12 5 18 -18 31 -14 25 8 -3 14 1 25 13 33 13 7 16 15 9 23 -5 6
-11 40 -13 75 -3 35 -3 54 0 42 3 -13 10 -23 15 -23z"/>
<path d="M3045 2192 c-16 -2 -33 -9 -37 -15 -3 -6 -29 -10 -57 -9 -38 1 -53
-3 -61 -16 -8 -15 -9 -15 -10 4 0 18 -5 20 -46 18 -25 -2 -54 -6 -64 -9 -15
-5 -18 -3 -14 9 5 12 0 16 -20 16 -18 0 -30 -8 -41 -29 -15 -29 -14 -30 15
-36 16 -4 38 -19 49 -33 18 -25 26 -27 108 -32 99 -6 191 -1 173 10 -13 8 30
43 68 55 18 5 22 12 18 28 -3 12 -6 27 -6 32 0 10 -24 12 -75 7z"/>
</g>
</svg>
